<svg width="259" height="72" viewBox="0 0 259 72" fill="none" xmlns="http://www.w3.org/2000/svg">
<g clip-path="url(#clip0_2012_328)">
<path d="M44.3285 6.88877L43.9851 7.37608C42.1108 10.1789 38.298 10.1438 36.1926 10.1438C34.0872 10.1438 30.2744 10.1789 28.3039 7.37608L27.9604 6.88877C24.9917 2.6814 20.1423 0.17799 14.9687 0.17799H0C0 0.17799 0.673978 12.1249 11.3774 12.1249H24.6355C30.252 12.1249 30.2744 17.7209 30.2744 17.7209V58.0111C30.2744 69.9357 42.114 71.8818 42.114 71.8818V17.7178C42.114 17.7178 42.1397 12.1217 47.7561 12.1217H62.6061C71.2394 12.1217 72.3082 0.174805 72.3082 0.174805H57.3202C52.1466 0.174805 47.2972 2.67821 44.3317 6.88559M17.7994 24.0686H6.08827L7.16021 26.8714L7.35599 27.3587C9.05056 31.5661 9.76305 36.0187 18.13 36.0187H25.21C25.21 36.0187 22.7291 24.0718 17.7962 24.0718" fill="white"/>
<path d="M82.9377 27.3237H85.3736V42.2582C85.3736 44.7329 84.7446 45.217 81.7341 45.3572V46.0674H91.7379V45.3572C88.8141 45.2138 88.0984 44.8157 88.0984 42.2582V27.3237H90.5343C92.9703 27.3237 93.8593 28.7187 94.2605 32.2732H95.1206V25.5879H94.4049C94.177 25.986 93.7759 26.158 93.0281 26.158H80.4439C79.6705 26.158 79.2982 26.0147 79.0382 25.5879H78.3225V32.2732H79.1826C79.5549 28.8016 80.4151 27.3237 82.9377 27.3237Z" fill="white"/>
<path d="M101.568 32.93C103.69 32.93 104.463 34.6658 104.463 36.8571H97.9868C98.1312 34.497 99.3925 32.93 101.572 32.93M106.845 42.0041C106.158 43.2271 104.897 43.8545 103.119 43.8545C99.8803 43.8545 98.1023 41.4913 97.9611 37.8222H107.535C107.535 34.325 105.728 31.793 102.117 31.793C98.0766 31.793 95.8108 35.064 95.8108 39.3319C95.8108 43.5997 98.0445 46.4153 102.117 46.4153C105.07 46.4153 106.96 44.482 107.535 42.348L106.848 42.0072L106.845 42.0041Z" fill="white"/>
<path d="M116.072 33.2421C118.28 33.2421 119.483 34.3792 120.084 36.5991H120.886V32.5892C119.451 31.965 118.164 31.793 116.701 31.793C112.172 31.793 109.82 35.3761 109.82 39.4433C109.82 43.7399 112.429 46.4121 116.213 46.4121C119.281 46.4121 120.973 44.4788 121.515 42.2589L120.854 41.9754C120.308 42.8863 119.278 43.8514 117.272 43.8514C114.092 43.8514 111.996 41.4913 111.996 38.0196C111.996 35.0034 113.488 33.2421 116.065 33.2421" fill="white"/>
<path d="M136.943 43.3414V36.7707C136.943 33.1303 135.023 31.7926 132.584 31.7926C130.145 31.7926 128.226 33.1876 127.539 35.519L127.395 35.4617C127.796 34.21 127.911 33.2418 127.911 31.2798V24.4512H127.196L123.184 25.5022V26.1297C123.585 26.0723 123.9 26.0437 124.188 26.0437C125.219 26.0437 125.479 26.3271 125.479 27.4674V43.3382C125.479 44.902 125.02 45.16 123.1 45.3575V46.0677H129.895V45.3575C128.348 45.1313 127.918 44.8734 127.918 43.3382V35.8566C128.579 34.4903 129.58 33.694 131.445 33.694C133.31 33.694 134.513 34.7196 134.513 37.1657V43.679C134.513 44.73 134.112 45.074 132.623 45.3575V46.0677H139.33V45.3575C137.469 45.1313 136.952 44.9594 136.952 43.3382" fill="white"/>
<path d="M140.755 33.9519C141.384 33.8946 141.76 33.8659 141.988 33.8659C142.761 33.8659 143.307 34.1494 143.307 34.8055V43.3381C143.307 44.9019 142.848 45.2141 140.929 45.3574V46.0676H147.723V45.3574C146.176 45.1854 145.746 44.8733 145.746 43.3381V35.8279C146.433 34.2641 147.752 33.6939 149.299 33.6939C151.218 33.6939 152.338 34.8023 152.338 37.2197V43.6757C152.338 44.73 151.937 45.1249 150.448 45.3542V46.0645H157.155V45.3542C155.291 45.1822 154.777 44.9561 154.777 43.3349V36.7643C154.777 33.0952 152.887 31.7861 150.448 31.7861C148.009 31.7861 146.118 33.1525 145.374 35.4839L145.229 35.4552C145.403 34.6303 145.457 34.1749 145.457 33.6908V32.1269H144.799L140.759 33.2353V33.9456L140.755 33.9519Z" fill="white"/>
<path d="M165.75 33.0408C168.36 33.0408 169.849 34.8912 169.849 39.0986C169.849 43.306 168.36 45.1565 165.75 45.1565C163.141 45.1565 161.652 43.306 161.652 39.0986C161.652 34.8912 163.141 33.0408 165.75 33.0408ZM158.728 39.0986C158.728 43.2232 161.594 46.4082 165.75 46.4082C169.907 46.4082 172.773 43.2232 172.773 39.0986C172.773 34.9741 169.907 31.7891 165.75 31.7891C161.594 31.7891 158.728 34.9741 158.728 39.0986Z" fill="white"/>
<path d="M174.637 45.3604V46.0707H181.833V45.3604C179.968 45.1343 179.455 44.9623 179.455 43.3411V24.4541H178.739L174.727 25.5052V26.1294C175.244 26.0721 175.558 26.0434 175.844 26.0434C176.762 26.0434 177.019 26.3842 177.019 27.4671V43.3411C177.019 44.905 176.56 45.1598 174.64 45.3604" fill="white"/>
<path d="M190.72 33.0415C193.329 33.0415 194.818 34.892 194.818 39.0993C194.818 43.3067 193.329 45.1572 190.72 45.1572C188.11 45.1572 186.621 43.3067 186.621 39.0993C186.621 34.892 188.11 33.0415 190.72 33.0415ZM190.72 46.4121C194.876 46.4121 197.742 43.2271 197.742 39.1025C197.742 34.978 194.876 31.793 190.72 31.793C186.564 31.793 183.698 34.978 183.698 39.1025C183.698 43.2271 186.564 46.4121 190.72 46.4121Z" fill="white"/>
<path d="M206.311 32.7867C208.118 32.7867 209.437 33.9811 209.437 36.5991C209.437 39.2172 208.089 40.3829 206.311 40.3829C204.533 40.3829 203.188 39.2745 203.188 36.5991C203.188 33.9237 204.536 32.7867 206.311 32.7867ZM203.933 46.3261L208.548 46.5522C210.467 46.6382 211.959 47.151 211.959 48.8295C211.959 50.508 210.297 51.4762 207.431 51.4762C204.106 51.4762 202.245 50.3679 202.245 48.6034C202.245 47.7498 202.617 46.8389 203.936 46.3261M203.018 40.609V40.8065C201.384 41.3766 200.698 42.5137 200.698 43.5106C200.698 44.7909 201.558 45.8165 202.906 46.186V46.358C200.582 46.9822 199.895 48.0651 199.895 49.4283C199.895 51.3329 202.129 52.8139 205.942 52.8139C211.616 52.8139 213.654 49.9984 213.654 47.5523C213.654 45.1063 211.963 44.3673 209.353 44.1953L204.68 43.9119C203.39 43.8259 202.588 43.3418 202.588 42.5168C202.588 41.8894 202.989 41.2078 204.279 41.0932C204.908 41.2906 205.57 41.3766 206.314 41.3766C209.61 41.3766 212.017 39.472 212.017 36.5991C212.017 35.3761 211.703 33.7549 209.809 33.1848L209.896 33.016C210.843 33.3855 211.674 33.5575 212.505 33.5575H213.651V32.1338H208.577C207.89 31.9076 207.142 31.793 206.311 31.793C203.015 31.793 200.608 33.7294 200.608 36.5991C200.608 38.3923 201.526 39.7841 203.015 40.609" fill="white"/>
<path d="M224.573 32.8433C226.062 32.8433 226.867 33.4389 226.867 34.3498C226.867 34.7193 226.752 35.0601 226.611 35.4582L223.86 42.4556C223.603 43.1404 223.43 43.6787 223.343 44.3061L223.199 44.2775C223.199 43.3665 222.971 42.513 222.682 41.8314L219.932 35.1461C219.787 34.8053 219.675 34.4613 219.675 34.1778C219.675 33.3529 220.42 32.8401 221.999 32.8401V32.1299H215.089V32.8401C215.949 32.8401 216.206 32.9835 216.809 34.4613L222.227 47.1503L221.825 47.9179C221.052 49.3957 219.588 50.1633 218.07 50.1633C217.066 50.1633 216.264 49.9085 215.721 49.5677H215.092V52.4406C215.721 52.6954 216.556 52.8101 217.156 52.8101C219.104 52.8101 221.055 52.1285 222.544 48.5708L228.45 34.4613C228.851 33.5217 229.368 32.8401 230.17 32.8401V32.1299H224.579V32.8401L224.573 32.8433Z" fill="white"/>
<path d="M245.296 44.4207C242.658 44.4207 240.652 42.3154 240.652 39.4712C240.652 37.1111 241.798 35.9741 243.431 35.318L249.221 41.9173C248.505 43.169 247.36 44.4207 245.293 44.4207M258.422 43.4238C257.992 44.0481 257.248 44.4494 256.532 44.4494C255.242 44.4494 254.555 44.0226 252.835 42.0606L243.778 31.7349C243.232 31.1106 242.719 30.1424 242.719 29.1168C242.719 27.7791 243.608 26.5561 245.411 26.5561C247.392 26.5561 248.621 28.2919 249.34 31.1361H249.969V26.2726C248.906 25.8745 246.958 25.6738 245.813 25.6738C242.202 25.6738 240.366 27.5785 240.366 30.0532C240.366 31.617 241.599 33.2095 242.372 34.0918L242.972 34.7734C238.845 36.5092 238.187 39.2674 238.187 41.1179C238.187 44.8157 241.111 46.5515 244.15 46.5515C246.788 46.5515 248.736 44.787 249.654 42.3982L251.917 44.9876C252.893 46.096 253.923 46.5515 255.126 46.5515C257.306 46.5515 258.538 44.959 258.997 43.7933L258.422 43.4238Z" fill="white"/>
<path d="M78.865 52.4573C81.0153 52.6006 81.6443 53.1389 81.6443 55.5563V67.844C81.6443 70.1754 81.0699 70.8029 78.865 70.943V71.6533H87.1485V70.943C84.9982 70.7997 84.3691 70.2614 84.3691 67.844V55.5563C84.3691 53.0816 84.857 52.6548 87.1485 52.4573V51.7471H78.865V52.4573Z" fill="white"/>
<path d="M103.318 68.9267V62.3561C103.318 58.687 101.427 57.3779 98.9881 57.3779C96.5489 57.3779 94.6586 58.7443 93.914 61.0757L93.7696 61.047C93.9429 60.2221 93.9974 59.7667 93.9974 59.2826V57.7187H93.3363L89.2957 58.8271V59.5374C89.9247 59.48 90.3002 59.4514 90.5281 59.4514C91.3015 59.4514 91.8471 59.7348 91.8471 60.3909V68.9235C91.8471 70.4874 91.3882 70.7995 89.469 70.9428V71.6531H96.2633V70.9428C94.7164 70.7708 94.2863 70.4587 94.2863 68.9235V61.4133C94.9763 59.8495 96.2922 59.2794 97.8391 59.2794C99.7584 59.2794 100.878 60.3878 100.878 62.8052V69.2612C100.878 70.3122 100.477 70.7103 98.9881 70.9396V71.6499H105.696V70.9396C103.831 70.7676 103.318 70.5415 103.318 68.9204" fill="white"/>
<path d="M121.146 68.9267V62.3561C121.146 58.687 119.256 57.3779 116.816 57.3779C114.377 57.3779 112.487 58.7443 111.742 61.0757L111.598 61.047C111.771 60.2221 111.826 59.7667 111.826 59.2826V57.7187H111.165L107.124 58.8271V59.5374C107.753 59.48 108.129 59.4514 108.356 59.4514C109.13 59.4514 109.676 59.7348 109.676 60.3909V68.9235C109.676 70.4874 109.217 70.7995 107.297 70.9428V71.6531H114.092V70.9428C112.545 70.7708 112.115 70.4587 112.115 68.9235V61.4133C112.805 59.8495 114.121 59.2794 115.667 59.2794C117.587 59.2794 118.707 60.3878 118.707 62.8052V69.2612C118.707 70.3122 118.306 70.7103 116.816 70.9396V71.6499H123.524V70.9396C121.663 70.7676 121.146 70.5415 121.146 68.9204" fill="white"/>
<path d="M132.125 70.7446C129.516 70.7446 128.027 68.8973 128.027 64.6868C128.027 60.4762 129.516 58.6289 132.125 58.6289C134.734 58.6289 136.224 60.4762 136.224 64.6868C136.224 68.8973 134.734 70.7446 132.125 70.7446ZM132.125 57.374C127.969 57.374 125.103 60.559 125.103 64.6836C125.103 68.8082 127.969 71.9932 132.125 71.9932C136.281 71.9932 139.147 68.8082 139.147 64.6836C139.147 60.559 136.281 57.374 132.125 57.374Z" fill="white"/>
<path d="M149.325 58.4287C150.958 58.4287 151.789 58.6262 151.789 59.4257C151.789 59.7091 151.703 60.0499 151.504 60.5054L148.407 67.1333C148.092 67.8149 147.977 68.2704 147.919 68.9265H147.774C147.717 67.9869 147.572 67.334 147.287 66.5951L144.591 60.5086C144.417 60.0818 144.334 59.741 144.334 59.4575C144.334 58.6613 145.05 58.4319 146.629 58.4319V57.7217H139.722V58.4319C140.669 58.4319 140.954 58.6581 141.471 59.7983L147.033 71.8025H147.749L153.224 59.7983C153.625 58.8619 154.142 58.4319 154.8 58.4319V57.7217H149.325V58.4319V58.4287Z" fill="white"/>
<path d="M163.745 67.9298C163.228 69.637 162.226 70.4906 160.821 70.4906C159.303 70.4906 158.526 69.4937 158.526 68.0158C158.526 66.1399 159.903 65.2289 162.166 64.8022L163.741 64.5187V67.933L163.745 67.9298ZM167.329 70.1498C166.527 70.1498 166.184 69.5542 166.184 68.6433V62.4134C166.184 58.8876 164.178 57.3779 161.453 57.3779C158.041 57.3779 156.581 59.3972 156.122 61.4165L156.896 61.6426C157.47 60.1361 158.645 59.3112 160.564 59.3112C162.772 59.3112 163.745 60.5916 163.745 62.6395V63.5505L160.734 64.1492C157.294 64.8308 155.804 66.1972 155.804 68.4171C155.804 70.7772 157.323 72.0034 159.762 72.0034C161.97 72.0034 163.314 70.5797 163.632 69.2994H163.806C163.777 71.0639 164.778 71.9461 166.213 71.9461C167.503 71.9461 168.475 71.2645 168.937 69.7548L168.45 69.4714C168.222 69.8695 167.846 70.1529 167.333 70.1529" fill="white"/>
<path d="M176.672 70.1786C175.61 70.1786 174.493 69.5543 174.493 67.5318V59.1394H178.389V57.7157H174.493V54.416H173.748C172.917 56.378 171.685 57.8877 169.505 58.4259V59.1362H172.057V68.5797C172.057 70.6276 173.004 71.994 175.237 71.994C176.672 71.994 178.017 71.2837 179.108 70.0034L178.62 69.4078C178.02 69.8632 177.474 70.1754 176.672 70.1754" fill="white"/>
<path d="M183.752 55.5849C184.814 55.5849 185.642 54.76 185.642 53.709C185.642 52.6579 184.811 51.833 183.752 51.833C182.693 51.833 181.862 52.6579 181.862 53.709C181.862 54.76 182.693 55.5849 183.752 55.5849Z" fill="white"/>
<path d="M185.158 68.9267V57.7188H184.442L180.257 58.8271V59.5374C180.716 59.48 181.059 59.4514 181.374 59.4514C182.349 59.4514 182.722 59.7922 182.722 60.7891V68.9236C182.722 70.4874 182.263 70.7995 180.343 70.9429V71.6531H187.539V70.9429C185.678 70.7709 185.161 70.5447 185.161 68.9236" fill="white"/>
<path d="M196.423 70.7446C193.814 70.7446 192.324 68.8973 192.324 64.6868C192.324 60.4762 193.814 58.6289 196.423 58.6289C199.032 58.6289 200.521 60.4762 200.521 64.6868C200.521 68.8973 199.032 70.7446 196.423 70.7446ZM196.423 57.374C192.267 57.374 189.401 60.559 189.401 64.6836C189.401 68.8082 192.267 71.9932 196.423 71.9932C200.579 71.9932 203.445 68.8082 203.445 64.6836C203.445 60.559 200.579 57.374 196.423 57.374Z" fill="white"/>
<path d="M219.47 68.9267V62.3561C219.47 58.687 217.579 57.3779 215.14 57.3779C212.701 57.3779 210.811 58.7443 210.066 61.0757L209.922 61.047C210.095 60.2221 210.149 59.7667 210.149 59.2826V57.7187H209.488L205.448 58.8271V59.5374C206.077 59.48 206.452 59.4514 206.68 59.4514C207.454 59.4514 207.999 59.7348 207.999 60.3909V68.9235C207.999 70.4874 207.54 70.7995 205.621 70.9428V71.6531H212.415V70.9428C210.868 70.7708 210.438 70.4587 210.438 68.9235V61.4133C211.128 59.8495 212.444 59.2794 213.991 59.2794C215.91 59.2794 217.03 60.3878 217.03 62.8052V69.2612C217.03 70.3122 216.629 70.7103 215.14 70.9396V71.6499H221.848V70.9396C219.986 70.7676 219.47 70.5415 219.47 68.9204" fill="white"/>
<path d="M81.0025 11.3097H90.8458V9.07066H81.0025V2.71659H88.6602C91.5519 2.71659 91.5519 0.477539 91.5519 0.477539H85.9129C83.3004 0.477539 81.914 1.81205 81.914 1.81205C81.0025 2.71659 80.1424 2.6306 80.1424 2.6306L79.2598 2.63378C78.7431 2.63378 78.3226 3.05102 78.3226 3.5638V20.4666H81.0025V11.3129V11.3097Z" fill="white"/>
<path d="M186.653 2.71634H192.549C195.171 2.71634 196.497 3.78012 196.497 5.87904C196.497 8.53851 195.142 9.85391 192.433 9.85391H186.65V2.71634H186.653ZM186.653 12.093H191.984C194.099 12.093 195.2 13.4084 195.848 15.6761C195.906 15.8736 196.018 16.3481 196.16 17.103C196.33 17.8578 196.497 18.5012 196.696 19.0076C196.895 19.5108 197.148 19.9886 197.514 20.4631H200.418V20.1828C199.94 19.5968 199.571 18.9789 199.347 18.3929C199.122 17.8037 198.868 16.966 198.612 15.9022C198.3 14.5295 197.88 13.4657 197.369 12.7109C196.917 11.9528 196.214 11.4783 195.226 11.2553C197.877 10.5259 199.202 8.73598 199.202 5.88222C199.202 2.63353 196.862 0.480469 192.546 0.480469H190.042C188.444 0.480469 187.481 1.77358 187.481 1.77358C186.65 2.72271 185.764 2.63671 185.764 2.63671H184.907C184.391 2.63671 183.973 3.05394 183.973 3.56354V20.4663H186.653V12.0961V12.093Z" fill="white"/>
<path d="M213.349 17.8583C212.306 18.4188 211.064 18.6991 209.626 18.6991C207.961 18.6991 206.581 18.336 205.509 17.6067C204.437 16.8518 203.901 15.702 203.901 14.135H201.221C201.221 16.4027 202.01 18.1099 203.589 19.2597C205.168 20.3808 207.171 20.9382 209.626 20.9382C212.248 20.9382 214.646 20.2661 216.312 18.3902C217.159 17.4665 217.582 16.3199 217.582 14.9758C217.582 6.88596 204.69 10.8322 204.69 5.65337C204.69 4.44944 205.143 3.58312 206.073 3.05123C207.004 2.51933 208.105 2.23905 209.431 2.23905C212.28 2.23905 213.831 3.41432 214.142 6.21393H216.822C216.681 1.98744 213.805 0 209.431 0C207.399 0 205.65 0.503229 204.183 1.51287C202.745 2.51933 202.01 3.97806 202.01 5.85402C202.01 13.1891 214.903 7.9179 214.903 15.0618C214.903 16.3772 214.395 17.3009 213.349 17.8615" fill="white"/>
<path d="M141.972 0.474609V16.683H141.914L130.858 0.474609H128.008V20.4636H130.546V4.424H130.604L141.577 20.4636H144.51V0.474609H141.972Z" fill="white"/>
<path d="M150.849 2.761L150.862 2.74508L155.362 2.761C159.848 2.761 162.076 5.6912 162.076 10.3827C162.018 14.571 160.384 16.638 158.465 17.5043C157.111 18.1445 156.238 18.2305 155.307 18.2305H150.849V2.761ZM164.755 10.0196C164.755 7.00341 163.85 4.68792 162.159 3.01262C159.675 0.544245 156.048 0.52832 156.048 0.52832C155.451 0.537875 153.224 0.569725 152.155 1.45515L151.013 2.34058C150.705 2.53805 150.275 2.73552 149.79 2.761H149.886H149.784C149.732 2.761 149.684 2.761 149.633 2.761H149.103C148.586 2.761 148.166 3.17505 148.166 3.68784V20.4632H155.076C161.591 20.4632 164.752 16.638 164.752 10.0196" fill="white"/>
<path d="M181.476 18.2243H170.166V11.3097H180.799V9.07066H170.166V2.71659H179.191C181.476 2.71659 181.393 0.477539 181.393 0.477539H173.087C171.344 0.477539 170.609 1.85027 170.609 1.85027C170.166 2.71659 169.454 2.70067 169.258 2.71659H168.424C167.907 2.71659 167.487 3.13383 167.487 3.64661V20.4634H181.476V18.2243Z" fill="white"/>
<path d="M117.436 2.65952H117.494L120.822 11.9533H114.034C114.034 11.9533 114.159 14.0809 117.866 14.0809H121.528L123.896 20.4636H126.916L118.986 0.474609H116.024L115.215 2.51301L108.096 20.4605H110.918L117.433 2.65633L117.436 2.65952Z" fill="white"/>
<path d="M94.5944 18.2243H95.432C95.6214 18.2371 96.3435 18.3358 96.3435 19.0875C96.3435 19.0875 96.9469 20.4634 101.636 20.4634H106.999C106.999 20.4634 106.938 18.2243 104.804 18.2243H96.3563L96.3371 0.477539H93.6572V17.2943C93.6572 17.8071 94.0777 18.2243 94.5944 18.2243Z" fill="white"/>
</g>
<defs>
<clipPath id="clip0_2012_328">
<rect width="259" height="72" fill="white"/>
</clipPath>
</defs>
</svg>
